<?xml version="1.0" encoding="utf-8"?>
<!-- Generator: Adobe Illustrator 23.0.4, SVG Export Plug-In . SVG Version: 6.00 Build 0)  -->
<svg version="1.1" id="Layer_1" xmlns="http://www.w3.org/2000/svg" xmlns:xlink="http://www.w3.org/1999/xlink" x="0px" y="0px"
	 viewBox="0 0 181.2 34.8" style="enable-background:new 0 0 181.2 34.8;" xml:space="preserve">
<style type="text/css">
	.st0{fill:#E01F27;}
	.st1{fill:#801517;}
	.st2{fill:#FFFFFF;}
	.st3{fill:#171C2D;}
</style>
<polygon class="st0" points="0,8.7 7.6,0 18.7,0 11.1,8.7 "/>
<polygon class="st1" points="0,8.7 7.6,17.4 18.7,17.4 11.1,8.7 "/>
<polygon class="st0" points="0,26.1 7.6,17.4 18.7,17.4 11.1,26.1 "/>
<polygon class="st1" points="0,26.1 7.6,34.8 18.7,34.8 11.1,26.1 "/>
<polygon class="st0" points="33.8,0 18.7,0 26.3,8.7 "/>
<polygon class="st1" points="33.8,34.8 18.7,34.8 26.3,26.1 "/>
<polygon class="st2" points="69.4,34.8 61.2,20.7 53,34.8 48.3,34.8 58.9,17 48.9,0 53.8,0 61.2,13.3 68.7,0 73.5,0 63.5,17
	74.3,34.8 "/>
<rect x="76.8" class="st2" width="4.2" height="34.8"/>
<polygon class="st2" points="86.8,34.8 86.8,0 91,0 91,31 105.2,31 105.2,34.8 "/>
<rect x="108.7" class="st2" width="4.2" height="34.8"/>
<polygon class="st2" points="140.7,34.8 122.9,7.9 122.9,34.8 118.7,34.8 118.7,0 122.6,0 140.4,26.8 140.4,0 144.5,0 144.5,34.8
	"/>
<polygon class="st2" points="168.2,34.8 160.1,20.7 151.8,34.8 147.1,34.8 157.7,17 147.8,0 152.6,0 160.1,13.3 167.5,0 172.4,0
	162.3,17 173.1,34.8 "/>
<g>
	<path class="st3" d="M177.9,28.3c1.7,0,3.2,1.4,3.2,3.2c0,1.7-1.5,3.2-3.2,3.2c-1.9,0-3.2-1.4-3.2-3.2
		C174.7,29.7,176.2,28.3,177.9,28.3L177.9,28.3z M177.9,29c-1.4,0-2.5,1.1-2.5,2.5c0,1.4,1.1,2.5,2.5,2.5c1.4,0,2.4-1.1,2.4-2.5
		C180.4,30.1,179.3,29,177.9,29L177.9,29z M177.4,33.1h-0.7v-3.1c0.2,0,0.7-0.1,1.2-0.1c0.6,0,0.9,0.1,1.1,0.2
		c0.2,0.1,0.4,0.4,0.4,0.6c0,0.4-0.2,0.6-0.6,0.7l0,0c0.2,0.1,0.5,0.4,0.6,0.7c0.1,0.5,0.1,0.6,0.2,0.7h-0.7
		c-0.1-0.1-0.1-0.4-0.2-0.7c0-0.4-0.2-0.5-0.6-0.5h-0.4v1.4H177.4z M177.4,31.3h0.4c0.4,0,0.7-0.1,0.7-0.5c0-0.2-0.2-0.5-0.6-0.5
		c-0.2,0-0.4,0-0.4,0v1H177.4z"/>
</g>
</svg>
